<mxfile host="app.diagrams.net" modified="2021-05-21T02:44:30.372Z" agent="5.0 (Windows NT 10.0; Win64; x64) AppleWebKit/537.36 (KHTML, like Gecko) Chrome/90.0.4430.212 Safari/537.36" etag="ZFI5FrzpcF7Sy5XBiI-w" version="14.6.1" type="github">
  <diagram id="qJl6L_b8eQOdMOk2-5cf" name="Page-1">
    <mxGraphModel dx="2370" dy="377" grid="1" gridSize="10" guides="1" tooltips="1" connect="1" arrows="1" fold="1" page="1" pageScale="1" pageWidth="827" pageHeight="1169" math="0" shadow="0">
      <root>
        <mxCell id="0" />
        <mxCell id="1" parent="0" />
        <mxCell id="-hgWHhxbQMnMu8cg0Kyq-1" value="实时统计" style="swimlane;html=1;childLayout=stackLayout;resizeParent=1;resizeParentMax=0;startSize=20;" vertex="1" parent="1">
          <mxGeometry x="230" y="40" width="950" height="890" as="geometry" />
        </mxCell>
        <mxCell id="-hgWHhxbQMnMu8cg0Kyq-2" value="web" style="swimlane;html=1;startSize=20;" vertex="1" parent="-hgWHhxbQMnMu8cg0Kyq-1">
          <mxGeometry y="20" width="210" height="870" as="geometry" />
        </mxCell>
        <mxCell id="-hgWHhxbQMnMu8cg0Kyq-5" value="" style="ellipse;html=1;shape=startState;fillColor=#000000;strokeColor=#ff0000;" vertex="1" parent="-hgWHhxbQMnMu8cg0Kyq-2">
          <mxGeometry x="75" y="60" width="30" height="30" as="geometry" />
        </mxCell>
        <mxCell id="-hgWHhxbQMnMu8cg0Kyq-6" value="" style="edgeStyle=orthogonalEdgeStyle;html=1;verticalAlign=bottom;endArrow=open;endSize=8;strokeColor=#ff0000;" edge="1" source="-hgWHhxbQMnMu8cg0Kyq-5" parent="-hgWHhxbQMnMu8cg0Kyq-2">
          <mxGeometry relative="1" as="geometry">
            <mxPoint x="90" y="150" as="targetPoint" />
          </mxGeometry>
        </mxCell>
        <mxCell id="-hgWHhxbQMnMu8cg0Kyq-8" value="每5s发起请求" style="rounded=1;whiteSpace=wrap;html=1;arcSize=40;fontColor=#000000;fillColor=#ffffc0;strokeColor=#ff0000;" vertex="1" parent="-hgWHhxbQMnMu8cg0Kyq-2">
          <mxGeometry x="30" y="150" width="120" height="40" as="geometry" />
        </mxCell>
        <mxCell id="-hgWHhxbQMnMu8cg0Kyq-10" value="入参：园区id列表" style="rounded=1;whiteSpace=wrap;html=1;arcSize=40;fontColor=#000000;fillColor=#ffffc0;strokeColor=#ff0000;" vertex="1" parent="-hgWHhxbQMnMu8cg0Kyq-2">
          <mxGeometry x="30.000000000000114" y="249.9999999999999" width="120" height="40" as="geometry" />
        </mxCell>
        <mxCell id="-hgWHhxbQMnMu8cg0Kyq-9" value="" style="edgeStyle=orthogonalEdgeStyle;html=1;verticalAlign=bottom;endArrow=open;endSize=8;strokeColor=#ff0000;" edge="1" source="-hgWHhxbQMnMu8cg0Kyq-8" parent="-hgWHhxbQMnMu8cg0Kyq-2" target="-hgWHhxbQMnMu8cg0Kyq-10">
          <mxGeometry relative="1" as="geometry">
            <mxPoint x="70" y="270" as="targetPoint" />
          </mxGeometry>
        </mxCell>
        <mxCell id="-hgWHhxbQMnMu8cg0Kyq-3" value="服务端" style="swimlane;html=1;startSize=20;" vertex="1" parent="-hgWHhxbQMnMu8cg0Kyq-1">
          <mxGeometry x="210" y="20" width="380" height="870" as="geometry" />
        </mxCell>
        <mxCell id="-hgWHhxbQMnMu8cg0Kyq-21" value="实时查询接口" style="rounded=1;whiteSpace=wrap;html=1;arcSize=40;fontColor=#000000;fillColor=#ffffc0;strokeColor=#ff0000;" vertex="1" parent="-hgWHhxbQMnMu8cg0Kyq-3">
          <mxGeometry x="50.000000000000114" y="249.9999999999999" width="120" height="40" as="geometry" />
        </mxCell>
        <mxCell id="-hgWHhxbQMnMu8cg0Kyq-27" value="入参校验" style="rhombus;whiteSpace=wrap;html=1;fillColor=#ffffc0;strokeColor=#ff0000;" vertex="1" parent="-hgWHhxbQMnMu8cg0Kyq-3">
          <mxGeometry x="70" y="370" width="80" height="40" as="geometry" />
        </mxCell>
        <mxCell id="-hgWHhxbQMnMu8cg0Kyq-28" value="no" style="edgeStyle=orthogonalEdgeStyle;html=1;align=left;verticalAlign=bottom;endArrow=open;endSize=8;strokeColor=#ff0000;" edge="1" source="-hgWHhxbQMnMu8cg0Kyq-27" parent="-hgWHhxbQMnMu8cg0Kyq-3">
          <mxGeometry x="-1" relative="1" as="geometry">
            <mxPoint x="210" y="390" as="targetPoint" />
          </mxGeometry>
        </mxCell>
        <mxCell id="-hgWHhxbQMnMu8cg0Kyq-29" value="yes" style="edgeStyle=orthogonalEdgeStyle;html=1;align=left;verticalAlign=top;endArrow=open;endSize=8;strokeColor=#ff0000;entryX=0.5;entryY=0;entryDx=0;entryDy=0;" edge="1" source="-hgWHhxbQMnMu8cg0Kyq-27" parent="-hgWHhxbQMnMu8cg0Kyq-3" target="-hgWHhxbQMnMu8cg0Kyq-32">
          <mxGeometry x="-1" relative="1" as="geometry">
            <mxPoint x="110" y="470" as="targetPoint" />
          </mxGeometry>
        </mxCell>
        <mxCell id="-hgWHhxbQMnMu8cg0Kyq-30" value="校验失败" style="rounded=1;whiteSpace=wrap;html=1;arcSize=40;fontColor=#000000;fillColor=#ffffc0;strokeColor=#ff0000;" vertex="1" parent="-hgWHhxbQMnMu8cg0Kyq-3">
          <mxGeometry x="210" y="370" width="120" height="40" as="geometry" />
        </mxCell>
        <mxCell id="-hgWHhxbQMnMu8cg0Kyq-32" value="根据园区id列表查询关联表" style="rounded=1;whiteSpace=wrap;html=1;arcSize=40;fontColor=#000000;fillColor=#ffffc0;strokeColor=#ff0000;" vertex="1" parent="-hgWHhxbQMnMu8cg0Kyq-3">
          <mxGeometry x="32.5" y="480" width="155" height="40" as="geometry" />
        </mxCell>
        <mxCell id="-hgWHhxbQMnMu8cg0Kyq-36" value="组装key列表查询redis" style="text;align=center;fontStyle=1;verticalAlign=middle;spacingLeft=3;spacingRight=3;strokeColor=none;rotatable=0;points=[[0,0.5],[1,0.5]];portConstraint=eastwest;" vertex="1" parent="-hgWHhxbQMnMu8cg0Kyq-3">
          <mxGeometry x="270" y="590" width="80" height="26" as="geometry" />
        </mxCell>
        <mxCell id="-hgWHhxbQMnMu8cg0Kyq-37" value="查出结果列表，设备id、出入类型、taskId、vpsId" style="rounded=1;whiteSpace=wrap;html=1;arcSize=40;fontColor=#000000;fillColor=#ffffc0;strokeColor=#ff0000;" vertex="1" parent="-hgWHhxbQMnMu8cg0Kyq-3">
          <mxGeometry x="27.5" y="590" width="165" height="60" as="geometry" />
        </mxCell>
        <mxCell id="-hgWHhxbQMnMu8cg0Kyq-38" value="" style="edgeStyle=orthogonalEdgeStyle;rounded=0;orthogonalLoop=1;jettySize=auto;html=1;" edge="1" parent="-hgWHhxbQMnMu8cg0Kyq-3" source="-hgWHhxbQMnMu8cg0Kyq-32" target="-hgWHhxbQMnMu8cg0Kyq-37">
          <mxGeometry relative="1" as="geometry" />
        </mxCell>
        <mxCell id="-hgWHhxbQMnMu8cg0Kyq-4" value="redis" style="swimlane;html=1;startSize=20;" vertex="1" parent="-hgWHhxbQMnMu8cg0Kyq-1">
          <mxGeometry x="590" y="20" width="360" height="870" as="geometry">
            <mxRectangle x="240" y="20" width="30" height="460" as="alternateBounds" />
          </mxGeometry>
        </mxCell>
        <mxCell id="-hgWHhxbQMnMu8cg0Kyq-34" value="&lt;div style=&quot;text-align: left&quot;&gt;查询key：&lt;/div&gt;&lt;span style=&quot;text-align: left&quot;&gt;key=py_flow_analysis:设备id:vpsId&lt;/span&gt;" style="rounded=1;whiteSpace=wrap;html=1;arcSize=40;fontColor=#000000;fillColor=#ffffc0;strokeColor=#ff0000;" vertex="1" parent="-hgWHhxbQMnMu8cg0Kyq-4">
          <mxGeometry x="40" y="590" width="205" height="60" as="geometry" />
        </mxCell>
        <mxCell id="-hgWHhxbQMnMu8cg0Kyq-22" value="" style="edgeStyle=orthogonalEdgeStyle;rounded=0;orthogonalLoop=1;jettySize=auto;html=1;" edge="1" parent="-hgWHhxbQMnMu8cg0Kyq-1" source="-hgWHhxbQMnMu8cg0Kyq-10" target="-hgWHhxbQMnMu8cg0Kyq-21">
          <mxGeometry relative="1" as="geometry" />
        </mxCell>
        <mxCell id="-hgWHhxbQMnMu8cg0Kyq-35" value="" style="edgeStyle=orthogonalEdgeStyle;rounded=0;orthogonalLoop=1;jettySize=auto;html=1;" edge="1" parent="-hgWHhxbQMnMu8cg0Kyq-1" target="-hgWHhxbQMnMu8cg0Kyq-34">
          <mxGeometry relative="1" as="geometry">
            <mxPoint x="403" y="640" as="sourcePoint" />
          </mxGeometry>
        </mxCell>
        <mxCell id="-hgWHhxbQMnMu8cg0Kyq-26" value="" style="edgeStyle=orthogonalEdgeStyle;rounded=0;orthogonalLoop=1;jettySize=auto;html=1;" edge="1" parent="1" source="-hgWHhxbQMnMu8cg0Kyq-21">
          <mxGeometry relative="1" as="geometry">
            <mxPoint x="550" y="429.9999999999999" as="targetPoint" />
          </mxGeometry>
        </mxCell>
        <mxCell id="-hgWHhxbQMnMu8cg0Kyq-43" value="服务端订阅消息" style="swimlane;html=1;childLayout=stackLayout;resizeParent=1;resizeParentMax=0;startSize=20;fillColor=#f8cecc;strokeColor=#b85450;" vertex="1" parent="1">
          <mxGeometry x="-1000" y="40" width="790" height="740" as="geometry" />
        </mxCell>
        <mxCell id="-hgWHhxbQMnMu8cg0Kyq-50" value="kafka" style="swimlane;html=1;startSize=20;fillColor=#ffe6cc;strokeColor=#d79b00;" vertex="1" parent="-hgWHhxbQMnMu8cg0Kyq-43">
          <mxGeometry y="20" width="210" height="720" as="geometry" />
        </mxCell>
        <mxCell id="-hgWHhxbQMnMu8cg0Kyq-69" value="kafka消息存储" style="rounded=1;whiteSpace=wrap;html=1;arcSize=40;fillColor=#ffe6cc;strokeColor=#d79b00;" vertex="1" parent="-hgWHhxbQMnMu8cg0Kyq-50">
          <mxGeometry x="35" y="100" width="120" height="40" as="geometry" />
        </mxCell>
        <mxCell id="-hgWHhxbQMnMu8cg0Kyq-79" value="" style="ellipse;html=1;shape=startState;fillColor=#000000;strokeColor=#ff0000;" vertex="1" parent="-hgWHhxbQMnMu8cg0Kyq-50">
          <mxGeometry x="80" y="30" width="30" height="30" as="geometry" />
        </mxCell>
        <mxCell id="-hgWHhxbQMnMu8cg0Kyq-80" value="" style="edgeStyle=orthogonalEdgeStyle;html=1;verticalAlign=bottom;endArrow=open;endSize=8;strokeColor=#ff0000;entryX=0.5;entryY=0;entryDx=0;entryDy=0;" edge="1" source="-hgWHhxbQMnMu8cg0Kyq-79" parent="-hgWHhxbQMnMu8cg0Kyq-50" target="-hgWHhxbQMnMu8cg0Kyq-69">
          <mxGeometry relative="1" as="geometry">
            <mxPoint x="95" y="120" as="targetPoint" />
          </mxGeometry>
        </mxCell>
        <mxCell id="-hgWHhxbQMnMu8cg0Kyq-70" value="" style="edgeStyle=orthogonalEdgeStyle;html=1;verticalAlign=bottom;endArrow=open;endSize=8;strokeColor=#ff0000;" edge="1" source="-hgWHhxbQMnMu8cg0Kyq-69" parent="-hgWHhxbQMnMu8cg0Kyq-43" target="-hgWHhxbQMnMu8cg0Kyq-71">
          <mxGeometry relative="1" as="geometry">
            <mxPoint x="510" y="140" as="targetPoint" />
          </mxGeometry>
        </mxCell>
        <mxCell id="-hgWHhxbQMnMu8cg0Kyq-60" value="服务端" style="swimlane;html=1;startSize=20;fillColor=#d5e8d4;strokeColor=#82b366;" vertex="1" parent="-hgWHhxbQMnMu8cg0Kyq-43">
          <mxGeometry x="210" y="20" width="300" height="720" as="geometry">
            <mxRectangle x="240" y="20" width="30" height="460" as="alternateBounds" />
          </mxGeometry>
        </mxCell>
        <mxCell id="-hgWHhxbQMnMu8cg0Kyq-61" value="&lt;div style=&quot;text-align: left&quot;&gt;&lt;span&gt;key=py_flow_analysis:设备id:vpsId&lt;/span&gt;&lt;br&gt;&lt;/div&gt;&lt;div style=&quot;text-align: left&quot;&gt;&lt;span&gt;value=flowDeviceInfo inNum 100&lt;/span&gt;&lt;/div&gt;&lt;div style=&quot;text-align: left&quot;&gt;&lt;span&gt;&amp;nbsp; &amp;nbsp; &amp;nbsp; &amp;nbsp; &amp;nbsp; &amp;nbsp; &amp;nbsp; &amp;nbsp; &amp;nbsp; &amp;nbsp; &amp;nbsp; &amp;nbsp; &amp;nbsp; &amp;nbsp; &amp;nbsp; &amp;nbsp; &amp;nbsp; &amp;nbsp;outNum&amp;nbsp; 10&lt;br&gt;&lt;/span&gt;&lt;/div&gt;" style="rounded=1;whiteSpace=wrap;html=1;arcSize=40;fillColor=#d5e8d4;strokeColor=#82b366;" vertex="1" parent="-hgWHhxbQMnMu8cg0Kyq-60">
          <mxGeometry x="46.25" y="415" width="217.5" height="75" as="geometry" />
        </mxCell>
        <mxCell id="-hgWHhxbQMnMu8cg0Kyq-63" value="" style="edgeStyle=orthogonalEdgeStyle;html=1;verticalAlign=bottom;endArrow=open;endSize=8;strokeColor=#82b366;entryX=0.5;entryY=0;entryDx=0;entryDy=0;exitX=0.5;exitY=1;exitDx=0;exitDy=0;fillColor=#d5e8d4;" edge="1" parent="-hgWHhxbQMnMu8cg0Kyq-60" source="-hgWHhxbQMnMu8cg0Kyq-74" target="-hgWHhxbQMnMu8cg0Kyq-61">
          <mxGeometry relative="1" as="geometry">
            <mxPoint x="162.5" y="520" as="targetPoint" />
            <mxPoint x="162.5" y="489.9999999999999" as="sourcePoint" />
          </mxGeometry>
        </mxCell>
        <mxCell id="-hgWHhxbQMnMu8cg0Kyq-74" value="&lt;div style=&quot;text-align: left&quot;&gt;key描述：根据设备id、vpsId&lt;/div&gt;&lt;span&gt;&lt;div style=&quot;text-align: left&quot;&gt;value描述：保存入口量、出口量&lt;/div&gt;&lt;div style=&quot;text-align: left&quot;&gt;过期时间：一天&lt;/div&gt;&lt;/span&gt;" style="rounded=1;whiteSpace=wrap;html=1;arcSize=40;fillColor=#d5e8d4;strokeColor=#82b366;" vertex="1" parent="-hgWHhxbQMnMu8cg0Kyq-60">
          <mxGeometry x="55" y="280" width="200" height="60" as="geometry" />
        </mxCell>
        <mxCell id="-hgWHhxbQMnMu8cg0Kyq-71" value="订阅相应topic" style="rounded=1;whiteSpace=wrap;html=1;arcSize=40;fillColor=#d5e8d4;strokeColor=#82b366;" vertex="1" parent="-hgWHhxbQMnMu8cg0Kyq-60">
          <mxGeometry x="95" y="100" width="120" height="40" as="geometry" />
        </mxCell>
        <mxCell id="-hgWHhxbQMnMu8cg0Kyq-72" value="&lt;span style=&quot;text-align: left&quot;&gt;Hash结构，&lt;/span&gt;组装设备的入口量、出口量，并累加" style="rounded=1;whiteSpace=wrap;html=1;arcSize=40;fillColor=#d5e8d4;strokeColor=#82b366;" vertex="1" parent="-hgWHhxbQMnMu8cg0Kyq-60">
          <mxGeometry x="77.51" y="190" width="155" height="50" as="geometry" />
        </mxCell>
        <mxCell id="-hgWHhxbQMnMu8cg0Kyq-75" value="" style="edgeStyle=orthogonalEdgeStyle;rounded=0;orthogonalLoop=1;jettySize=auto;html=1;fillColor=#d5e8d4;strokeColor=#82b366;" edge="1" parent="-hgWHhxbQMnMu8cg0Kyq-60" source="-hgWHhxbQMnMu8cg0Kyq-72" target="-hgWHhxbQMnMu8cg0Kyq-74">
          <mxGeometry relative="1" as="geometry" />
        </mxCell>
        <mxCell id="-hgWHhxbQMnMu8cg0Kyq-73" value="" style="edgeStyle=orthogonalEdgeStyle;rounded=0;orthogonalLoop=1;jettySize=auto;html=1;fillColor=#d5e8d4;strokeColor=#82b366;" edge="1" parent="-hgWHhxbQMnMu8cg0Kyq-60" source="-hgWHhxbQMnMu8cg0Kyq-71" target="-hgWHhxbQMnMu8cg0Kyq-72">
          <mxGeometry relative="1" as="geometry" />
        </mxCell>
        <mxCell id="-hgWHhxbQMnMu8cg0Kyq-81" value="&lt;div style=&quot;text-align: left&quot;&gt;保存上述的key值，以便凌晨清零&lt;/div&gt;" style="rounded=1;whiteSpace=wrap;html=1;arcSize=40;fillColor=#d5e8d4;strokeColor=#82b366;" vertex="1" parent="-hgWHhxbQMnMu8cg0Kyq-60">
          <mxGeometry x="58.129999999999995" y="575" width="193.75" height="40" as="geometry" />
        </mxCell>
        <mxCell id="-hgWHhxbQMnMu8cg0Kyq-82" value="" style="edgeStyle=orthogonalEdgeStyle;rounded=0;orthogonalLoop=1;jettySize=auto;html=1;fillColor=#d5e8d4;strokeColor=#82b366;" edge="1" parent="-hgWHhxbQMnMu8cg0Kyq-60" source="-hgWHhxbQMnMu8cg0Kyq-61" target="-hgWHhxbQMnMu8cg0Kyq-81">
          <mxGeometry relative="1" as="geometry" />
        </mxCell>
        <mxCell id="-hgWHhxbQMnMu8cg0Kyq-85" value="" style="ellipse;html=1;shape=endState;fillColor=#000000;strokeColor=#ff0000;" vertex="1" parent="-hgWHhxbQMnMu8cg0Kyq-60">
          <mxGeometry x="140.01" y="680" width="30" height="30" as="geometry" />
        </mxCell>
        <mxCell id="-hgWHhxbQMnMu8cg0Kyq-84" value="" style="edgeStyle=orthogonalEdgeStyle;rounded=0;orthogonalLoop=1;jettySize=auto;html=1;entryX=0.5;entryY=0;entryDx=0;entryDy=0;" edge="1" parent="-hgWHhxbQMnMu8cg0Kyq-60" source="-hgWHhxbQMnMu8cg0Kyq-81" target="-hgWHhxbQMnMu8cg0Kyq-85">
          <mxGeometry relative="1" as="geometry">
            <mxPoint x="155.0050000000001" y="690" as="targetPoint" />
          </mxGeometry>
        </mxCell>
        <mxCell id="-hgWHhxbQMnMu8cg0Kyq-64" value="redis" style="swimlane;html=1;startSize=20;fillColor=#fff2cc;strokeColor=#d6b656;" vertex="1" parent="-hgWHhxbQMnMu8cg0Kyq-43">
          <mxGeometry x="510" y="20" width="280" height="720" as="geometry">
            <mxRectangle x="240" y="20" width="30" height="460" as="alternateBounds" />
          </mxGeometry>
        </mxCell>
        <mxCell id="-hgWHhxbQMnMu8cg0Kyq-76" value="&lt;div style=&quot;text-align: left&quot;&gt;&lt;span style=&quot;color: rgb(64 , 64 , 64) ; font-family: , &amp;#34;menlo&amp;#34; , &amp;#34;monaco&amp;#34; , &amp;#34;consolas&amp;#34; , &amp;#34;liberation mono&amp;#34; , &amp;#34;courier new&amp;#34; , &amp;#34;courier&amp;#34; , monospace&quot;&gt;HINCRBY&amp;nbsp;&lt;/span&gt;key flowDeviceInfo&amp;nbsp;inNum x&lt;/div&gt;&lt;div style=&quot;text-align: left&quot;&gt;&lt;span style=&quot;color: rgb(64 , 64 , 64)&quot;&gt;HINCRBY&amp;nbsp;&lt;/span&gt;key flowDeviceInfo outNum y&lt;br&gt;&lt;/div&gt;" style="rounded=1;whiteSpace=wrap;html=1;arcSize=40;fillColor=#fff2cc;strokeColor=#d6b656;" vertex="1" parent="-hgWHhxbQMnMu8cg0Kyq-64">
          <mxGeometry x="30" y="431.25" width="220" height="42.5" as="geometry" />
        </mxCell>
        <mxCell id="-hgWHhxbQMnMu8cg0Kyq-89" value="&lt;div style=&quot;text-align: left&quot;&gt;expire(key,1天)&lt;br&gt;&lt;/div&gt;&lt;div style=&quot;text-align: left&quot;&gt;setex(key1,value1,1天)&lt;/div&gt;" style="rounded=1;whiteSpace=wrap;html=1;arcSize=40;fillColor=#fff2cc;strokeColor=#d6b656;" vertex="1" parent="-hgWHhxbQMnMu8cg0Kyq-64">
          <mxGeometry x="40" y="575" width="160" height="40" as="geometry" />
        </mxCell>
        <mxCell id="-hgWHhxbQMnMu8cg0Kyq-77" value="" style="edgeStyle=orthogonalEdgeStyle;rounded=0;orthogonalLoop=1;jettySize=auto;html=1;" edge="1" parent="-hgWHhxbQMnMu8cg0Kyq-43" source="-hgWHhxbQMnMu8cg0Kyq-61" target="-hgWHhxbQMnMu8cg0Kyq-76">
          <mxGeometry relative="1" as="geometry" />
        </mxCell>
        <mxCell id="-hgWHhxbQMnMu8cg0Kyq-87" value="" style="edgeStyle=orthogonalEdgeStyle;rounded=0;orthogonalLoop=1;jettySize=auto;html=1;entryX=0;entryY=0.5;entryDx=0;entryDy=0;exitX=1;exitY=0.5;exitDx=0;exitDy=0;" edge="1" parent="-hgWHhxbQMnMu8cg0Kyq-43" target="-hgWHhxbQMnMu8cg0Kyq-89" source="-hgWHhxbQMnMu8cg0Kyq-81">
          <mxGeometry relative="1" as="geometry">
            <mxPoint x="462" y="610" as="sourcePoint" />
            <mxPoint x="550" y="615" as="targetPoint" />
          </mxGeometry>
        </mxCell>
        <mxCell id="-hgWHhxbQMnMu8cg0Kyq-90" value="查出结果列表，设备id、出入类型、taskId、vpsId" style="rounded=1;whiteSpace=wrap;html=1;arcSize=40;fontColor=#000000;fillColor=#ffffc0;strokeColor=#ff0000;" vertex="1" parent="1">
          <mxGeometry x="467.5" y="790" width="165" height="60" as="geometry" />
        </mxCell>
        <mxCell id="-hgWHhxbQMnMu8cg0Kyq-91" value="" style="edgeStyle=orthogonalEdgeStyle;rounded=0;orthogonalLoop=1;jettySize=auto;html=1;" edge="1" parent="1" source="-hgWHhxbQMnMu8cg0Kyq-37" target="-hgWHhxbQMnMu8cg0Kyq-90">
          <mxGeometry relative="1" as="geometry" />
        </mxCell>
      </root>
    </mxGraphModel>
  </diagram>
</mxfile>
